<?xml version="1.0" encoding="UTF-8"?>
<svg xmlns="http://www.w3.org/2000/svg" data-name="Ebene 1" viewBox="0 0 283.46 70.87" width="2400" height="602.12014134276"><path fill="#fff" d="M38.48 14.26a24 24 0 0 1 9 1.67 23.47 23.47 0 0 1 7.3 4.56 21.61 21.61 0 0 1 4.93 6.76 19.41 19.41 0 0 1 1.8 8.32V57h-23a24 24 0 0 1-8.93-1.66 23.52 23.52 0 0 1-7.4-4.61 21.51 21.51 0 0 1-5-6.85 20 20 0 0 1 0-16.6 21.15 21.15 0 0 1 5-6.76 24.33 24.33 0 0 1 16.33-6.23m13.84 34.22V35.57a11.86 11.86 0 0 0-1.07-5 12.94 12.94 0 0 0-3-4.09 13.87 13.87 0 0 0-4.42-2.76 14.44 14.44 0 0 0-5.4-1 14.8 14.8 0 0 0-5.44 1 13.78 13.78 0 0 0-4.47 2.76 12.79 12.79 0 0 0-3 4.09 11.72 11.72 0 0 0-1.08 5 12 12 0 0 0 1.08 5 12.67 12.67 0 0 0 3 4.14 14.13 14.13 0 0 0 4.45 2.8 14.8 14.8 0 0 0 5.44 1zM107.22 14.07l-24 42.81-23.98-42.81h10.27l3.29 5.85q1.85 3.28 3.7 6.66c1.23 2.25 2.5 4.42 3.64 6.52s2.21 3.9 3 5.42l3.55-6.33c1.33-2.37 2.65-4.74 4-7.08s2.5-4.52 3.6-6.52 2-3.5 2.57-4.52zM127.86 14.26a24 24 0 0 1 9 1.67 23.47 23.47 0 0 1 7.3 4.56 21.61 21.61 0 0 1 4.93 6.76 19.41 19.41 0 0 1 1.8 8.32V57h-23a24 24 0 0 1-8.93-1.66 23.52 23.52 0 0 1-7.4-4.61 21.51 21.51 0 0 1-5-6.85 20 20 0 0 1 0-16.6 21.15 21.15 0 0 1 5-6.76 24.33 24.33 0 0 1 16.33-6.23m13.88 34.25V35.57a11.72 11.72 0 0 0-1.08-5 12.94 12.94 0 0 0-3-4.09 13.87 13.87 0 0 0-4.42-2.76 14.44 14.44 0 0 0-5.4-1 14.8 14.8 0 0 0-5.44 1 13.78 13.78 0 0 0-4.43 2.77 12.79 12.79 0 0 0-3 4.09 11.72 11.72 0 0 0-1.08 5 12 12 0 0 0 1.08 5 12.67 12.67 0 0 0 3 4.14 14.13 14.13 0 0 0 4.47 2.76 14.8 14.8 0 0 0 5.44 1zM198.14 14.26v8.47H170.3A4.66 4.66 0 0 0 167 24a4 4 0 0 0-1.33 3 4.14 4.14 0 0 0 1.33 3.1 4.53 4.53 0 0 0 3.29 1.28h18.49a14.57 14.57 0 0 1 9.81 3.72 12.27 12.27 0 0 1 3 4 12.09 12.09 0 0 1 0 10 13 13 0 0 1-3 4.09 14.23 14.23 0 0 1-4.41 2.81 14.62 14.62 0 0 1-5.39 1h-27.74v-8.49h27.74a4.77 4.77 0 0 0 3.39-1.24 4.08 4.08 0 0 0 1.33-3.14 4 4 0 0 0-1.33-3 4.77 4.77 0 0 0-3.39-1.24H170.3a14.44 14.44 0 0 1-5.4-1 13.32 13.32 0 0 1-7.29-6.89 12.07 12.07 0 0 1 0-10 12.6 12.6 0 0 1 2.93-4 13.91 13.91 0 0 1 4.36-2.71 14.64 14.64 0 0 1 5.4-1zM208.72 14.26h9.04v42.71h-9.04zM265.33 14.26v8.47h-27.84A4.66 4.66 0 0 0 234.2 24a4 4 0 0 0-1.34 3 4.14 4.14 0 0 0 1.34 3.09 4.53 4.53 0 0 0 3.29 1.28H256a14.57 14.57 0 0 1 9.81 3.72 12.27 12.27 0 0 1 3 4 12.09 12.09 0 0 1 0 10 13 13 0 0 1-3 4.09 14.23 14.23 0 0 1-4.44 2.82 14.62 14.62 0 0 1-5.37 1h-27.76v-8.49H256a4.77 4.77 0 0 0 3.39-1.24 4.08 4.08 0 0 0 1.33-3.14 4 4 0 0 0-1.33-3 4.77 4.77 0 0 0-3.39-1.28h-18.51a14.44 14.44 0 0 1-5.4-1A13.32 13.32 0 0 1 224.8 32a12.07 12.07 0 0 1 0-10 12.6 12.6 0 0 1 2.93-4 13.91 13.91 0 0 1 4.36-2.71 14.64 14.64 0 0 1 5.4-1z"/></svg>
