<?xml version="1.0" encoding="UTF-8"?>
<svg width="128" height="128" viewBox="0 0 128 128" fill="none" xmlns="http://www.w3.org/2000/svg" role="img" aria-label="Freelancer Icon">
  <!-- Subtle badge background -->
  <circle cx="64" cy="64" r="56" fill="url(#g1)" opacity="0.08"/>
  <circle cx="64" cy="64" r="55" stroke="#2563EB" stroke-opacity="0.2" stroke-width="2"/>

  <!-- Briefcase -->
  <rect x="32" y="48" width="64" height="38" rx="8" stroke="#2563EB" stroke-width="4"/>
  <path d="M76 48v-4a6 6 0 0 0-6-6H58a6 6 0 0 0-6 6v4" stroke="#2563EB" stroke-width="4"/>
  <!-- Latch -->
  <path d="M64 64v8" stroke="#2563EB" stroke-width="4" stroke-linecap="round"/>
  <rect x="58" y="64" width="12" height="8" rx="2" fill="#2563EB"/>

  <!-- Sparkles (AI/Innovation) -->
  <path d="M94 34l2.5 5 5 2.5-5 2.5-2.5 5-2.5-5-5-2.5 5-2.5 2.5-5Z" stroke="#2563EB" stroke-width="2" fill="#2563EB" fill-opacity="0.15"/>
  <path d="M28 38l1.8 3.6 3.6 1.8-3.6 1.8-1.8 3.6-1.8-3.6-3.6-1.8 3.6-1.8L28 38Z" stroke="#2563EB" stroke-width="1.5" fill="#2563EB" fill-opacity="0.12"/>

  <!-- Bottom highlight line -->
  <path d="M28 92c10 8 26 12 36 12s26-4 36-12" stroke="#2563EB" stroke-opacity="0.15" stroke-width="3" stroke-linecap="round"/>

  <defs>
    <linearGradient id="g1" x1="20" y1="20" x2="108" y2="108" gradientUnits="userSpaceOnUse">
      <stop stop-color="#2563EB"/>
      <stop offset="1" stop-color="#7C3AED"/>
    </linearGradient>
  </defs>
</svg>